<svg width="22" height="22" viewBox="0 0 22 22" fill="none" xmlns="http://www.w3.org/2000/svg">
<path d="M18.6352 4.12228C18.1785 3.66534 17.6362 3.30287 17.0394 3.05556C16.4425 2.80826 15.8028 2.68097 15.1567 2.68097C14.5107 2.68097 13.871 2.80826 13.2741 3.05556C12.6773 3.30287 12.135 3.66534 11.6783 4.12228L10.7304 5.07014L9.78255 4.12228C8.86 3.19973 7.60875 2.68145 6.30407 2.68145C4.99939 2.68145 3.74815 3.19973 2.8256 4.12228C1.90305 5.04483 1.38477 6.29607 1.38477 7.60075C1.38477 8.90543 1.90305 10.1567 2.8256 11.0792L10.7304 18.984L18.6352 11.0792C19.0922 10.6225 19.4546 10.0802 19.7019 9.48338C19.9492 8.88653 20.0765 8.24681 20.0765 7.60075C20.0765 6.9547 19.9492 6.31497 19.7019 5.71812C19.4546 5.12128 19.0922 4.579 18.6352 4.12228Z" stroke="#5B6D2E" stroke-width="2" stroke-linecap="round" stroke-linejoin="round"/>
</svg>
