<svg width="34" height="34" viewBox="0 0 34 34" fill="none" xmlns="http://www.w3.org/2000/svg">
<circle cx="17" cy="17" r="15.5" stroke="#5B6D2E" stroke-width="3"/>
<path d="M25.1031 11.2259C24.6349 10.7574 24.079 10.3859 23.4672 10.1324C22.8554 9.87884 22.1996 9.74835 21.5373 9.74835C20.875 9.74835 20.2192 9.87884 19.6074 10.1324C18.9955 10.3859 18.4396 10.7574 17.9715 11.2259L16.9998 12.1975L16.0281 11.2259C15.0824 10.2801 13.7997 9.74884 12.4623 9.74884C11.1248 9.74884 9.84217 10.2801 8.89645 11.2259C7.95073 12.1716 7.41943 13.4542 7.41943 14.7917C7.41943 16.1291 7.95073 17.4118 8.89645 18.3575L16.9998 26.4609L25.1031 18.3575C25.5715 17.8893 25.9431 17.3334 26.1966 16.7216C26.4501 16.1098 26.5806 15.454 26.5806 14.7917C26.5806 14.1294 26.4501 13.4736 26.1966 12.8618C25.9431 12.2499 25.5715 11.6941 25.1031 11.2259Z" fill="#5B6D2E" stroke="#5B6D2E" stroke-width="2" stroke-linecap="round" stroke-linejoin="round"/>
</svg>
