<svg width="34" height="34" viewBox="0 0 34 34" fill="none" xmlns="http://www.w3.org/2000/svg">
<circle cx="16.5835" cy="16.5835" r="15.0835" stroke="#5B6D2E" stroke-width="3"/>
<path d="M24.4878 10.9508C24.031 10.4938 23.4888 10.1314 22.8919 9.88405C22.2951 9.63675 21.6553 9.50946 21.0093 9.50946C20.3632 9.50946 19.7235 9.63675 19.1267 9.88405C18.5298 10.1314 17.9875 10.4938 17.5308 10.9508L16.5829 11.8986L15.6351 10.9508C14.7125 10.0282 13.4613 9.50994 12.1566 9.50994C10.8519 9.50994 9.60068 10.0282 8.67814 10.9508C7.75559 11.8733 7.2373 13.1246 7.2373 14.4292C7.2373 15.7339 7.75559 16.9852 8.67814 17.9077L16.5829 25.8125L24.4878 17.9077C24.9447 17.451 25.3072 16.9087 25.5545 16.3119C25.8018 15.715 25.9291 15.0753 25.9291 14.4292C25.9291 13.7832 25.8018 13.1435 25.5545 12.5466C25.3072 11.9498 24.9447 11.4075 24.4878 10.9508Z" stroke="#5B6D2E" stroke-width="2" stroke-linecap="round" stroke-linejoin="round"/>
</svg>
