<svg width="142" height="50" viewBox="0 0 142 50" fill="none" xmlns="http://www.w3.org/2000/svg">
<path d="M0.196454 18.8456V17.8136L1.35127 17.6662C1.96553 17.5925 2.11295 17.3468 2.11295 16.3885V3.61188C2.11295 2.80105 1.96553 2.53078 1.27756 2.45706L0.196454 2.33421V1.30225H7.27276C11.5726 1.30225 14.1034 2.72734 14.1034 6.29006C14.1034 10.2213 10.8846 11.8184 7.83788 11.8184C6.97791 11.8184 6.16708 11.7693 5.87224 11.6956V16.4131C5.87224 17.2731 5.99509 17.6171 6.83049 17.6662L8.42757 17.8136V18.8456H0.196454ZM6.97791 10.5408C9.14011 10.5408 10.1966 9.16481 10.1966 6.38834C10.1966 3.58731 9.18925 2.50621 6.9042 2.50621H5.87224V10.4425C6.11794 10.4916 6.53564 10.5408 6.97791 10.5408ZM20.2385 19.1896C17.978 19.1896 16.6266 17.9119 16.6266 15.848C16.6266 13.1207 18.5431 12.1624 23.6784 11.9167V9.60708C23.6784 7.71515 23.0887 6.92889 21.467 6.92889C20.607 6.92889 19.5997 7.22374 19.1328 7.66601C19.8945 8.64883 20.1156 9.16481 20.1156 9.53337C20.1156 10.1968 19.4768 10.7619 18.4203 10.7619C17.3146 10.7619 16.774 10.1968 16.774 9.28766C16.774 7.51859 18.9608 5.87236 22.0567 5.87236C25.5211 5.87236 27.2656 7.27288 27.2656 10.5653V16.2903C27.2656 17.1011 27.5851 17.4451 28.2239 17.4451C28.5679 17.4451 28.8873 17.3714 29.2804 17.2239L29.5016 18.0102C28.7644 18.7964 27.6588 19.1896 26.676 19.1896C25.0543 19.1896 24.1943 18.3787 23.9732 16.9782C23.2361 18.4279 22.0813 19.1896 20.2385 19.1896ZM21.7373 17.4942C22.9167 17.4942 23.6784 16.6342 23.6784 15.3566V12.9487C21.1967 12.9732 20.1893 13.6366 20.1893 15.4549C20.1893 16.7817 20.7053 17.4942 21.7373 17.4942ZM31.2378 18.8456V17.8382L32.2698 17.6662C32.7612 17.5925 32.884 17.3468 32.884 16.5114V9.01739C32.884 7.93628 32.7857 7.5923 32.0486 7.51859L31.0167 7.39573L31.1395 6.3392L35.8079 6.04436L36.0782 6.24092L36.201 8.62426H36.2748C37.0364 6.85518 38.437 5.87236 40.0095 5.87236C41.7294 5.87236 42.8105 6.90432 42.8105 8.47683C42.8105 9.82821 42.1717 10.7127 40.7957 10.7127C39.6655 10.7127 39.0758 10.1476 39.0758 9.43508C39.0758 8.94367 39.2724 8.5014 39.8866 7.54316C38.3633 6.97804 36.4468 8.57512 36.4468 10.9585V16.536C36.4468 17.3222 36.545 17.5679 37.1102 17.6416L38.9038 17.8382V18.8456H31.2378ZM50.7896 19.1896C47.0303 19.1896 44.7207 16.7571 44.7207 12.7767C44.7207 8.64883 47.2269 5.87236 51.3301 5.87236C54.254 5.87236 56.0477 7.44487 56.0477 9.18938C56.0477 10.2213 55.4825 11.0813 54.1803 11.0813C53.1238 11.0813 52.4849 10.5653 52.4849 9.7545C52.4849 9.28766 52.7307 8.77168 53.3941 7.66601C52.8044 7.27288 52.1655 7.07632 51.3301 7.07632C49.6102 7.07632 48.4308 8.64883 48.4308 11.9167C48.4308 15.0126 49.7085 16.7079 52.0181 16.7079C53.3941 16.7079 54.4752 16.2411 55.5071 15.4303L56.1951 16.2411C55.0157 18.0839 53.2466 19.1896 50.7896 19.1896ZM58.5886 18.8456V17.8382L59.5714 17.6908C60.0874 17.5925 60.2103 17.3714 60.2103 16.536V2.87476C60.2103 1.76909 60.0874 1.47425 59.3011 1.37596L58.3429 1.27768L58.4412 0.196579L63.5273 1.62967e-05L63.7975 0.221151V8.15742L63.8221 8.23113C64.5592 6.7569 66.0335 5.87236 67.8762 5.87236C70.579 5.87236 71.9549 7.46944 71.9549 10.1968V16.7079C71.9549 17.4205 72.0532 17.6171 72.6921 17.7153L73.6257 17.8382V18.8456H66.8689V17.8628L67.6797 17.7399C68.2448 17.6416 68.3677 17.4451 68.3677 16.6834V10.5899C68.3677 8.45226 67.9008 7.73972 66.4512 7.73972C64.9278 7.73972 63.7975 8.84539 63.7975 10.8356V16.6097C63.7975 17.3714 63.8958 17.6171 64.3872 17.6908L65.3455 17.8628V18.8456H58.5886ZM76.0089 18.8456V17.8382L77.0163 17.6908C77.5323 17.5925 77.6551 17.3959 77.6551 16.536V8.96824C77.6551 7.91171 77.5323 7.5923 76.7951 7.49402L75.7878 7.37116L75.9106 6.3392L80.6281 6.04436L80.8984 6.24092L80.9721 8.57512H81.0458C81.8075 6.87975 83.3309 5.87236 85.1245 5.87236C87.1147 5.87236 88.3924 6.80604 88.8838 8.55055C89.5964 6.87975 91.1197 5.87236 92.938 5.87236C95.5424 5.87236 96.8938 7.46944 96.8938 10.1968V16.6834C96.8938 17.4205 97.0167 17.6171 97.6555 17.7153L98.5892 17.8382V18.8456H92.0043V17.8628L92.6677 17.7399C93.2082 17.6416 93.3311 17.4451 93.3311 16.6834V10.5408C93.3311 8.40312 92.8397 7.73972 91.562 7.73972C90.1615 7.73972 89.0558 8.84539 89.0558 10.7373V16.6342C89.0558 17.3222 89.105 17.6171 89.6455 17.6908L90.4318 17.8628V18.8456H84.1663V17.8628L84.8297 17.7399C85.3702 17.6416 85.4931 17.4451 85.4931 16.6834V10.5408C85.4931 8.37855 85.0017 7.73972 83.724 7.73972C82.3235 7.73972 81.2178 8.9191 81.2178 10.7619V16.6342C81.2178 17.3714 81.3161 17.6171 81.8075 17.6908L82.5938 17.8628V18.8456H76.0089ZM107.153 19.1896C103.246 19.1896 100.961 16.7817 100.961 12.8012C100.961 8.40312 103.689 5.87236 107.521 5.87236C110.642 5.87236 112.632 7.64144 112.632 10.5162C112.632 11.1304 112.558 11.7693 112.436 12.4327H104.696C104.72 15.2829 106.047 16.7325 108.259 16.7325C109.659 16.7325 110.839 16.3148 112.042 15.2829L112.78 16.0445C111.551 18.0102 109.61 19.1896 107.153 19.1896ZM104.696 11.2533H109.119C109.168 10.8602 109.192 10.4425 109.192 9.97563C109.192 7.93628 108.578 7.02718 107.3 7.02718C105.752 7.02718 104.868 8.28027 104.696 11.2533ZM115.334 18.8456V17.8382L116.342 17.6908C116.858 17.5925 116.98 17.3959 116.98 16.536V8.96824C116.98 7.91171 116.858 7.5923 116.12 7.49402L115.113 7.37116L115.236 6.3392L119.953 6.04436L120.224 6.24092L120.297 8.57512H120.371C121.133 6.83061 122.705 5.87236 124.622 5.87236C127.349 5.87236 128.676 7.46944 128.676 10.1968V16.6834C128.676 17.4205 128.799 17.6171 129.438 17.7153L130.396 17.8382V18.8456H123.614V17.8628L124.425 17.7399C124.99 17.6416 125.113 17.4205 125.113 16.6834V10.5899C125.113 8.42769 124.646 7.73972 123.197 7.73972C121.673 7.73972 120.543 8.89453 120.543 10.8356V16.6342C120.543 17.3714 120.641 17.6171 121.133 17.6908L122.091 17.8628V18.8456H115.334ZM137.333 19.1896C135.024 19.1896 133.746 18.0593 133.746 15.4549V7.51859H132.001V6.46205C134.139 6.24092 134.802 5.06154 135.122 2.30964L136.989 2.06394L137.309 2.23593V6.21635H140.798V7.51859H137.309V14.9389C137.309 16.2903 137.702 17.0028 138.832 17.0028C139.594 17.0028 140.331 16.7325 140.994 16.1674L141.51 17.0028C140.454 18.3542 139.151 19.1896 137.333 19.1896ZM5.99509 49.1896C2.6535 49.1896 -0.000109606 47.5188 -0.000109606 44.3983C-0.000109606 41.9658 1.71982 40.5899 4.07859 39.7054C3.02206 38.5997 1.9901 37.2975 1.9901 35.6021C1.9901 32.7273 4.17687 31.2777 6.95334 31.2777C9.4841 31.2777 11.0075 32.7028 11.0075 34.7667C11.0075 36.6586 9.77894 38.01 8.00987 38.9437L11.4743 42.6538C12.5554 38.2557 14.2508 36.7323 16.069 36.7323C17.4204 36.7323 18.3295 37.5677 18.3295 38.7471C18.3295 39.6562 17.8626 40.5899 16.8552 40.5899C15.897 40.5899 15.5284 39.7791 15.0125 38.4031C14.1034 38.8945 13.0222 40.3442 12.3834 43.6121C14.4719 45.7497 15.4547 46.5114 16.4375 46.5114C17.0518 46.5114 17.5924 46.2657 18.3049 45.676L18.6735 46.4377C17.6661 47.8382 16.5113 48.9193 14.9879 48.9193C13.5382 48.9193 12.4571 48.2559 10.9829 46.8062C10.0984 48.0839 8.57499 49.1896 5.99509 49.1896ZM7.27276 38.2557C8.89441 37.1992 9.55781 35.9461 9.55781 34.7421C9.55781 33.2679 8.55042 32.3834 7.1499 32.3834C5.70024 32.3834 4.96313 33.2679 4.96313 34.4227C4.96313 35.7495 5.84767 36.806 7.27276 38.2557ZM6.78135 47.8382C8.35386 47.8382 9.43496 47.0519 10.0738 45.9708L4.79114 40.4916C3.85746 41.2779 3.31691 42.3098 3.31691 43.8332C3.31691 46.192 4.69285 47.8382 6.78135 47.8382ZM27.5964 48.8456V47.8136L28.8003 47.6662C29.4146 47.5925 29.5375 47.3222 29.5375 46.4131V33.6119C29.5375 32.7765 29.4146 32.5308 28.7266 32.4571L27.5964 32.3342V31.3023H35.2624V32.3342L34.0584 32.4571C33.4933 32.5308 33.3213 32.8011 33.3213 33.7102V46.4868C33.3213 47.3714 33.4442 47.5925 34.1076 47.6662L35.2624 47.8136V48.8456H27.5964ZM38.5072 48.8456V47.8382L39.5146 47.6908C40.0306 47.5925 40.1534 47.3959 40.1534 46.536V38.9682C40.1534 37.9117 40.0306 37.5923 39.2935 37.494L38.2861 37.3712L38.4089 36.3392L43.1265 36.0444L43.3967 36.2409L43.4705 38.5751H43.5442C44.3059 36.8306 45.8784 35.8724 47.7949 35.8724C50.5222 35.8724 51.849 37.4694 51.849 40.1968V46.6834C51.849 47.4205 51.9718 47.6171 52.6107 47.7153L53.5689 47.8382V48.8456H46.7875V47.8628L47.5983 47.7399C48.1634 47.6416 48.2863 47.4205 48.2863 46.6834V40.5899C48.2863 38.4277 47.8194 37.7397 46.3698 37.7397C44.8464 37.7397 43.7162 38.8945 43.7162 40.8356V46.6342C43.7162 47.3714 43.8144 47.6171 44.3059 47.6908L45.2641 47.8628V48.8456H38.5072ZM55.9709 48.8456V47.8382L57.0028 47.6908C57.5925 47.5925 57.7154 47.3714 57.7154 46.4868V32.8502C57.7154 31.7937 57.6171 31.4988 56.7817 31.376L55.8235 31.2777L55.9217 30.1966L61.0324 30L61.2781 30.2212V46.536C61.2781 47.2976 61.3764 47.5925 61.9907 47.6908L62.7278 47.8136V48.8456H55.9709ZM68.1824 49.1159C66.8802 49.1159 65.9956 48.6244 64.9391 47.1256L61.5484 42.3344V42.0396L65.6025 38.3786C66.0939 37.9363 66.1431 37.5186 65.5534 37.3957L64.5706 37.2483L64.7425 36.2164H70.0252V37.2483L69.2144 37.4449C68.6738 37.5677 68.207 37.7397 67.4944 38.354L64.5951 40.9339L68.1578 45.7743C68.895 46.8308 69.3372 47.2485 70.0498 47.2485C70.2955 47.2485 70.6149 47.1994 71.0326 47.0274L71.2783 47.8382C70.5412 48.5753 69.3864 49.1159 68.1824 49.1159ZM76.8998 48.8456L73.6319 38.7963C73.337 37.8871 73.1896 37.6414 72.5016 37.4694L71.74 37.2975L71.8874 36.2164H78.6934V37.2483L77.686 37.3712C77.1209 37.4694 76.9735 37.6906 77.2437 38.6243L79.4059 45.848H79.4797L82.0841 36.2164H84.9589L87.8336 45.8234H87.9319L89.9221 38.7963C90.1924 37.8626 90.0204 37.5432 89.3324 37.4203L88.4233 37.2483L88.5707 36.2164H93.2883V37.2483L92.4529 37.4203C91.814 37.5432 91.4946 37.8134 91.1998 38.8945L88.2513 48.8456H85.3274L82.6001 39.6808H82.5018L80.0448 48.8456H76.8998ZM100.938 49.1896C97.0316 49.1896 94.7466 46.7817 94.7466 42.8012C94.7466 38.4031 97.4739 35.8724 101.307 35.8724C104.427 35.8724 106.418 37.6414 106.418 40.5162C106.418 41.1304 106.344 41.7693 106.221 42.4327H98.4813C98.5059 45.2829 99.8327 46.7325 102.044 46.7325C103.445 46.7325 104.624 46.3148 105.828 45.2829L106.565 46.0445C105.336 48.0102 103.395 49.1896 100.938 49.1896ZM98.4813 41.2533H102.904C102.953 40.8602 102.978 40.4425 102.978 39.9756C102.978 37.9363 102.363 37.0272 101.086 37.0272C99.5378 37.0272 98.6533 38.2803 98.4813 41.2533ZM108.972 48.8456V47.8136L110.028 47.6662C110.642 47.5925 110.741 47.3714 110.741 46.4622V32.8502C110.741 31.7691 110.593 31.4988 109.807 31.4005L108.849 31.2777L108.947 30.1966L114.058 30L114.328 30.2212V46.536C114.328 47.3222 114.426 47.5925 115.09 47.6662L116.146 47.8382V48.8456H108.972ZM118.544 48.8456V47.8136L119.601 47.6662C120.215 47.5925 120.314 47.3714 120.314 46.4622V32.8502C120.314 31.7691 120.166 31.4988 119.38 31.4005L118.422 31.2777L118.52 30.1966L123.631 30L123.901 30.2212V46.536C123.901 47.3222 123.999 47.5925 124.662 47.6662L125.719 47.8382V48.8456H118.544Z" fill="#191921"/>
</svg>
